<?xml version="1.0" standalone="no"?><!DOCTYPE svg PUBLIC "-//W3C//DTD SVG 1.1//EN" "http://www.w3.org/Graphics/SVG/1.1/DTD/svg11.dtd"><svg class="icon" width="200px" height="200.00px" viewBox="0 0 1024 1024" version="1.1" xmlns="http://www.w3.org/2000/svg"><path fill="#333333" d="M749.002 632.964c68.202-63.151 111.165-153.169 111.165-253.205 0-190.557-155.027-345.564-345.629-345.564-190.551 0-345.593 155.027-345.593 345.564 0 100.037 43.004 190.036 111.175 253.205-111.479 78.235-186.535 196.965-189.328 308.084-0.001 0.349-0.002 0.77-0.002 1.207 0 26.834 21.415 48.662 48.091 49.366l1.342 0.003c26.823 0 48.656-21.409 49.339-48.060 2.234-89.482 76.572-191.765 179.749-250.619 44.231 20.587 93.318 32.429 145.242 32.429 51.938 0 101.036-11.814 145.269-32.429 103.234 58.795 177.546 161.106 179.781 250.548 0.688 26.721 22.507 48.118 49.324 48.139l1.263-0.002c26.721-0.661 48.13-22.473 48.13-49.281 0-0.45-0.001-0.912-0.002-1.362-2.738-111.060-77.811-229.774-189.279-308.013zM267.737 379.775c0-136.135 110.706-246.841 246.823-246.841 136.135 0 246.886 110.731 246.886 246.841 0 136.095-110.752 246.874-246.886 246.874-136.117-0.001-246.823-110.752-246.823-246.874z"  /><path fill="#333333" d="M646.719 430.094c-3.543-2.109-7.818-3.333-12.393-3.333-9.067 0-16.993 4.9-21.269 12.215-20.174 34.32-56.756 56.945-98.621 57.038-41.779-0.142-78.314-22.817-98.076-56.539-4.619-7.66-12.445-12.403-21.391-12.403-13.632 0-24.686 11.056-24.686 24.686 0 4.441 1.18 8.599 3.223 12.191 28.775 48.88 81.214 81.279 141.225 81.398 59.883-0.172 112.309-32.625 140.665-80.897 2.407-4.179 3.649-8.434 3.649-12.986 0-9.086-4.9-17.026-12.221-21.314z"  /></svg>