<?xml version="1.0" standalone="no"?><!DOCTYPE svg PUBLIC "-//W3C//DTD SVG 1.1//EN" "http://www.w3.org/Graphics/SVG/1.1/DTD/svg11.dtd"><svg class="icon" width="200px" height="200.00px" viewBox="0 0 1024 1024" version="1.1" xmlns="http://www.w3.org/2000/svg"><path d="M414.788607 700.945308c196.980981 0 355.589043-130.467922 355.589043-291.634179S611.769588 120.235144 414.788607 120.235144C220.365821 120.235144 59.199564 250.703066 59.199564 409.311129s161.166257 291.634179 355.589043 291.634179z" fill="#030000" /><path d="M89.897899 296.750568C48.966786 161.166257 56.641369 66.513058 107.80526 2.558195 143.619984-7.674584 202.458459 33.256529 307.344436 148.375284l-217.446537 148.375284zM519.674584 133.026117c115.118755-79.304031 217.446537-115.118755 301.866957-74.187642 2.558195 84.42042-23.023751 166.282646-81.862226 248.144872l-220.004731-173.95723zM261.296934 703.503502c51.163891 17.907362 102.327782 30.698335 158.608062 33.25653 53.722086 0 110.002366-10.232778 166.282646-38.372919 104.885977 61.396669 173.95723 158.608062 207.213759 222.562927 28.14014 56.28028 25.581946 92.095004 7.674584 97.211393-15.349167 15.349167-71.629448 0-117.67695-40.931113-69.071253-61.396669-168.840841-110.002366-232.795704-112.560561-58.838475-15.349167-140.7007-2.558195-227.679316 15.349168-61.396669 12.790973-115.118755-7.674584-107.444171-63.954864 7.674584-33.256529 33.256529-58.838475 56.28028-79.304031 25.581946-20.465556 46.047502-30.698335 89.53681-33.25653z" fill="#030000" /><path d="M675.724451 780.249339c53.722086-110.002366 125.351533-161.166257 258.37765-140.7007 43.489307 12.790973 30.698335 30.698335 20.465557 43.489307-25.581946 25.581946-48.605697 5.116389-122.793339 28.14014-110.002366 28.14014-94.653199 79.304031-110.002366 125.351533-15.349167-20.465556-30.698335-38.372918-46.047502-56.28028z" fill="#030000" /><path d="M243.389572 432.33488m-107.444171 0a107.444171 107.444171 0 1 0 214.888342 0 107.444171 107.444171 0 1 0-214.888342 0Z" fill="#FFFFFF" /><path d="M228.040404 432.33488a25.581946 15.349167 90 1 0 30.698335 0 25.581946 15.349167 90 1 0-30.698335 0Z" fill="#030000" /><path d="M235.714988 432.33488a12.790973 7.674584 90 1 0 15.349167 0 12.790973 7.674584 90 1 0-15.349167 0Z" fill="#FFFFFF" /><path d="M586.187642 432.33488m-107.444171 0a107.444171 107.444171 0 1 0 214.888342 0 107.444171 107.444171 0 1 0-214.888342 0Z" fill="#FFFFFF" /><path d="M570.838475 432.33488a25.581946 15.349167 90 1 0 30.698334 0 25.581946 15.349167 90 1 0-30.698334 0Z" fill="#030000" /><path d="M578.513058 432.33488a12.790973 7.674584 90 1 0 15.349168 0 12.790973 7.674584 90 1 0-15.349168 0Z" fill="#FFFFFF" /></svg>