<?xml version="1.0" standalone="no"?><!DOCTYPE svg PUBLIC "-//W3C//DTD SVG 1.1//EN" "http://www.w3.org/Graphics/SVG/1.1/DTD/svg11.dtd"><svg class="icon" width="200px" height="200.00px" viewBox="0 0 1024 1024" version="1.1" xmlns="http://www.w3.org/2000/svg"><path fill="#333333" d="M520.691963 652.071176c-4.699022 3.692089-6.807033 8.874111-4.710278 11.574616 2.097778 2.700505 7.607258 1.89721 12.30628-1.795902 4.697999-3.692089 6.807033-8.873088 4.709255-11.574616C530.898419 647.575792 525.389962 648.38011 520.691963 652.071176zM943.069783 598.113263c-0.671289-2.459005-16.766872-60.940954-38.795585-118.550023l-0.852414 0.325411c4.110621-15.211447 6.39464-31.220049 6.39464-47.786353 0-58.362222-18.017352-117.226888-49.396014-167.410847 6.584975-65.085344-7.389294-148.235113-46.3834-174.748976-36.148291-24.592095-122.714879-9.227152-175.730327 30.062689-27.428699-4.743024-56.164161-7.05365-86.324064-6.215562-27.39493 0.734734-53.593616 3.565199-78.521355 8.316409-54.615898-39.957037-151.726633-58.002019-187.592492-33.592073-40.177048 27.304879-58.537208 128.884392-45.38363 192.886055l0.13917-0.028653c-25.377994 45.720298-39.551808 97.883331-39.551808 150.730956 0 8.718569 0.760317 17.242709 1.862417 25.634844-26.702152 61.387116-44.141336 136.429229-44.506656 138.298809-20.085454 61.285808-21.132296 122.010845-4.424776 176.73419-4.403287 4.264117-10.247388 6.769171-16.479323 6.769171-13.176091 0-23.8942-10.82658-23.8942-24.128537 0-3.177366 0.593518-6.228865 1.76418-9.117658 7.80578-8.173147 12.216229-19.101033 12.216229-30.513968 0-24.315802-19.709901-44.103474-43.939745-44.103474-17.508769 0-33.113165 10.234085-40.169885 26.204825-10.499122 17.297968-16.041348 37.156248-16.041348 57.530274 0 60.988026 49.372477 110.611214 110.064768 110.611214 19.7406 0 39.025828-5.501294 55.878658-15.484669 44.308135 59.425438 112.836905 97.500615 195.622376 107.401102 7.861038 1.779529 57.32766 11.919471 162.442696 11.919471 106.231463 0 159.764704-10.671037 167.367869-12.310374 90.49506-11.295254 163.550936-55.211463 205.773574-123.716696C966.596615 765.708306 973.029118 681.57514 943.069783 598.113263zM544.901341 668.500357c-9.655917 0-29.756721 0-29.756721 18.078751 0 12.235672 10.722202 22.367427 24.736381 24.369014l0 26.021653c-23.779589-3.794419-42.065048-24.357757-42.065048-49.28959 0-27.609825 22.37152-50.075489 49.872874-50.075489s49.872874 22.465664 49.872874 50.075489c0 26.846438-21.189601 48.651047-47.631834 49.855478l0-26.588565c14.012132-2.00568 24.737404-12.133342 24.737404-24.367991C574.666248 668.500357 554.565445 668.500357 544.901341 668.500357zM228.687446 494.709195c35.492352 81.430614 135.328152 136.688125 270.846638 148.554384-8.827039 9.729595-14.984273 21.956058-16.821107 35.651988C336.041476 664.457274 217.269395 598.284155 217.269395 530.513656 217.269395 518.39771 221.166145 506.402515 228.687446 494.709195zM597.167728 644.639926c133.972271-9.459442 236.523925-59.806107 278.367939-135.440715-0.173962 3.65525-0.448208 7.345292-0.690732 10.253528-0.367367 4.324492-0.679475 8.227382-0.679475 11.060917 0 67.115584-116.739794 132.725884-261.546831 147.95882C610.807377 665.612587 605.213985 654.033877 597.167728 644.639926zM796.051381 116.374474c16.981766 11.54801 32.308847 55.092759 33.880645 107.251699-5.107321-5.804193-10.204409-11.624758-15.732309-17.006326-36.531008-35.561937-81.229023-60.916395-131.914402-76.1831C726.384695 108.683305 779.035846 104.804974 796.051381 116.374474zM303.845193 114.954125c17.066701-11.613502 78.641081-5.039783 125.978203 18.056238-57.655118 17.628496-106.891496 46.976918-145.195893 87.527472-5.762237 6.098905-11.131525 12.546757-16.349363 19.11229C267.620154 186.668447 284.744159 127.935788 303.845193 114.954125zM552.84015 145.748479c97.348142-2.724041 180.068122 26.353205 239.058654 83.782172 53.81465 52.394301 85.944418 128.119983 85.944418 202.573695 0 14.706957-1.959631 28.881794-5.815449 42.128493-0.532119 1.821485-0.605797 3.628644-0.476861 5.40408-30.947849 86.159312-142.319379 143.622048-292.122197 150.169161-0.127913 0.00614-0.231267 0.076748-0.358157 0.089028-9.332553-5.16872-19.955494-8.277524-31.380708-8.277524-10.67206 0-20.59813 2.792603-29.482475 7.343245-0.313132-0.056282-0.580215-0.221034-0.906649-0.240477-149.060921-8.896624-255.738545-70.060659-281.002952-160.100348 0.151449-1.502213 0.173962-3.041266-0.145309-4.614088-2.060939-10.178827-3.106758-20.912285-3.106758-31.902594C233.044684 293.843398 331.930855 151.681608 552.84015 145.748479zM137.523143 834.04981c-43.057655 0-78.091566-35.275411-78.091566-78.636988 0-14.823614 4.105504-29.249161 11.880585-41.723264l1.264806-2.474354c1.850138-4.597715 6.205329-7.564279 11.092639-7.564279 6.596232 0 11.966543 5.440919 11.966543 12.130272 0 3.543709-1.452071 6.791683-4.090155 9.124821l-2.232854 1.974981-1.366114 2.64627c-4.113691 7.954159-6.291287 16.899902-6.291287 25.88453 0 30.93557 25.064862 56.101739 55.867402 56.101739 9.562796 0 18.780739-2.443655 26.89965-6.916527 3.052522 6.010901 6.744611 12.528338 11.060917 19.537985C163.945933 830.583872 150.8558 834.04981 137.523143 834.04981zM897.396557 817.055764c-37.140898 60.254316-102.211916 98.909707-183.214788 108.847034l-1.623987 0.288572c-0.514723 0.116657-52.682873 11.69332-161.091932 11.69332-108.120486 0-155.433048-11.131525-155.87-11.241019l-1.959631-0.350994c-78.092589-9.145287-141.867078-45.784766-180.62787-103.07968l-2.423189-3.620457c-1.089821-1.62808-1.963725-3.095501-2.992147-4.677533-36.622082-59.741639-43.428092-133.714398-18.396999-210.315006 0.098237-0.427742 5.608741-24.048719 14.882965-55.000662 18.22713 69.739341 133.707234 131.466194 278.485619 145.395438 3.683902 32.955576 31.304983 58.755172 65.12116 58.755172 33.972742 0 61.692061-26.037003 65.167209-59.210543 153.527652-15.766079 273.319969-85.291548 276.954753-160.53116 13.378705 39.695071 22.399149 72.420403 22.792099 73.723072C939.580309 683.027212 934.178275 757.37143 897.396557 817.055764zM384.667963 451.907367c55.406914 0 100.478436-45.305859 100.478436-101.001345s-45.071522-101.009532-100.478436-101.009532c-55.398728 0-100.471272 45.314045-100.471272 101.009532S329.269235 451.907367 384.667963 451.907367zM384.667963 265.88258c42.484603 0 77.400834 31.825846 83.280752 72.969918L301.395398 338.852498C307.273269 297.708426 342.18336 265.88258 384.667963 265.88258zM406.713049 354.839611c-0.796132 2.849908-1.421372 5.8001-1.421372 8.149611 0 19.956517 16.086373 36.134988 35.930327 36.134988 5.334495 0 10.352789-1.243317 14.904455-3.341095-14.94948 24.00881-41.285289 40.137139-71.457472 40.137139-45.24753 0-81.996502-36.06438-84.089164-81.080643L406.713049 354.839611zM719.514217 451.907367c55.406914 0 100.478436-45.305859 100.478436-101.001345s-45.071522-101.009532-100.478436-101.009532c-55.398728 0-100.471272 45.314045-100.471272 101.009532S664.114466 451.907367 719.514217 451.907367zM719.514217 265.88258c42.484603 0 77.400834 31.825846 83.280752 72.969918L636.240629 338.852498C642.1185 297.708426 677.028591 265.88258 719.514217 265.88258zM738.371704 354.839611c-0.796132 2.849908-1.421372 5.8001-1.421372 8.149611 0 19.956517 16.087397 36.134988 35.930327 36.134988 7.17133 0 13.81668-2.169409 19.425422-5.809309-14.643512 25.340131-41.621956 42.606377-72.79084 42.606377-45.24753 0-81.996502-36.06438-84.089164-81.080643L738.371704 354.840634zM531.759019 458.857663c9.227152 13.257955 24.136723 13.331633 33.416064 0l7.086395-10.181897c9.228175-13.258978 3.693112-24.00574-12.537548-24.00574l-22.515806 0c-16.151865 0-21.816888 10.674107-12.537548 24.00574L531.759019 458.857663zM551.263236 515.13541c-67.147306 0-100.400664 40.567951-101.782128 42.293245-2.755764 3.434216-2.201132 8.446369 1.225921 11.209296 3.411703 2.747577 8.461719 2.216481 11.232832-1.194198 1.202385-1.482771 30.170137-36.32123 89.324398-36.32123 59.161425 0 88.129176 34.83846 89.331561 36.32123 1.576915 1.943258 3.894703 2.958378 6.221702 2.958378 1.76418 0 3.536546-0.577145 5.01113-1.76418 3.427052-2.762927 3.980661-7.77508 1.225921-11.209296C651.672086 555.703361 618.418728 515.13541 551.263236 515.13541z" /></svg>