<?xml version="1.0" standalone="no"?><!DOCTYPE svg PUBLIC "-//W3C//DTD SVG 1.1//EN" "http://www.w3.org/Graphics/SVG/1.1/DTD/svg11.dtd"><svg class="icon" width="200px" height="144.12px" viewBox="0 0 1421 1024" version="1.1" xmlns="http://www.w3.org/2000/svg"><path fill="#333333" d="M1214.495 372.65c0-0.034 0-0.073 0-0.113 0-45.542-36.921-82.463-82.463-82.463-0.042 0-0.084 0-0.126 0-45.293 0-82.576 37.283-82.576 82.577 0 7.62 1.205 14.838 3.211 21.65-11.228 3.608-20.445 8.819-24.054 11.223l-149.93 88.595-130.685-190.014c-5.608-9.621-15.632-22.048-29.662-33.27 15.869-16.278 25.657-38.548 25.657-63.105 0-0.083 0-0.166 0-0.249 0-50.094-40.891-90.986-90.998-90.986-50.113 0-90.601 41.288-90.601 91.402 0 24.451 9.621 46.902 25.657 63.337-13.632 10.824-24.053 23.253-29.663 33.277l-130.689 190.014-149.926-88.595c-0.801-0.402-1.602-1.205-2.807-1.601 4.012-9.621 6.415-20.445 6.415-31.27 0-45.698-36.879-82.583-82.582-82.583-45.698 0-82.179 36.885-82.179 82.179 0 36.885 24.451 67.751 57.728 78.576-0.402 5.608-0.801 11.223-0.801 17.235v186.406c0 16.838 13.627 30.867 30.867 30.867 0.071 0.001 0.155 0.001 0.24 0.001 16.915 0 30.628-13.714 30.628-30.628 0-0.084 0-0.168-0.001-0.253v-186.791c0-7.217 0.398-12.031 1.205-14.838 5.156 1.631 9.573 4.341 13.171 7.88-4.352-3.47-3.551-3.066-3.154-3.066l175.184 103.426c14.030 8.017 31.669 4.409 40.891-9.222l147.521-214.869c0.402-0.801 1.205-1.601 1.602-2.405 0-0.398 15.638-25.657 41.294-26.861h1.601c26.054 1.205 41.287 26.861 41.287 26.861 0.402 0.801 0.801 1.601 1.601 2.405l147.527 214.869c5.663 8.104 14.949 13.339 25.459 13.339 5.678 0 10.999-1.527 15.575-4.197l175.036-103.346c0.402-0.402 0.801-0.801 1.205-0.801 4.083-2.76 8.977-4.64 14.257-5.256-5.040 4.051-4.635 8.865-4.635 16.478v254.96h-867.495c-16.837 0-30.867 13.626-30.867 30.867v122.268c0 16.837 13.626 30.867 30.867 30.867h897.965c16.831 0 30.867-13.632 30.867-30.867 0.001-0.071 0.001-0.155 0.001-0.24 0-16.915-13.713-30.628-30.628-30.628-0.084 0-0.168 0-0.253 0.001h-867.084v-60.933h867.097c16.831 0 30.867-13.632 30.867-30.873v-285.422c0-4.807 0-9.218-0.402-13.627 44.896 0.398 81.781-36.481 81.781-82.185M199.074 351.404c11.626 0 21.246 9.625 21.246 21.246 0 11.626-9.621 21.246-21.246 21.246s-21.246-9.621-21.246-21.246c0-11.621 9.621-21.246 21.246-21.246M653.265 178.226c0.021 0 0.044 0 0.068 0 16.347 0 29.6 13.253 29.6 29.6 0 0.023 0 0.048 0 0.072 0 0.015 0 0.037 0 0.059 0 16.347-13.253 29.6-29.6 29.6-0.023 0-0.048 0-0.072 0-0.017 0-0.040 0-0.065 0-16.344 0-29.594-13.25-29.594-29.594 0-0.023 0-0.048 0-0.072 0-16.434 13.626-29.664 29.662-29.664M1131.912 394.301c-11.626 0-21.246-9.621-21.246-21.246s9.621-21.246 21.246-21.246 21.246 9.621 21.246 21.246-9.621 21.246-21.246 21.246z"  /></svg>