<?xml version="1.0" standalone="no"?><!DOCTYPE svg PUBLIC "-//W3C//DTD SVG 1.1//EN" "http://www.w3.org/Graphics/SVG/1.1/DTD/svg11.dtd"><svg class="icon" width="200px" height="199.42px" viewBox="0 0 1027 1024" version="1.1" xmlns="http://www.w3.org/2000/svg"><path fill="#333333" d="M513.51552 49.513813C230.7584 50.85184 0.703147 281.954987 0.703147 564.681387c0 85.865813 21.541547 170.530133 62.23872 245.517653l0-136.209067c0-25.07776 8.973653-48.356693 24.593067-68.317867-1.283413-13.636267-1.952427-27.275947-1.952427-40.99072 0-236.137813 192.146773-429.16864 427.936427-430.291627 236.192427 1.1264 428.3392 194.153813 428.3392 430.291627 0 15.189333-0.887467 30.327467-2.46784 45.359787 13.60896 18.940587 21.2992 40.669867 21.2992 63.9488l0 143.117653c43.185493-76.67712 66.041173-163.935573 66.041173-252.42624C1026.727253 281.954987 796.672 50.85184 513.51552 49.513813zM94.552747 652.02176c-2.143573 7.099733-3.321173 14.441813-3.321173 21.968213l0 131.2768 0 61.108907c0 59.37152 70.72768 107.513173 157.96224 107.513173l66.49856 0L315.692373 566.531413 249.1904 566.531413C173.02528 566.531413 109.47584 603.183787 94.552747 652.02176zM932.39296 866.379093l0-63.228587 0-129.160533c0-4.608-0.453973-9.161387-1.31072-13.636267-9.86112-52.937387-76.19584-93.822293-156.6208-93.822293l-66.495147 0L707.966293 973.892267l66.495147 0C861.66528 973.892267 932.39296 925.750613 932.39296 866.379093z" /></svg>