<?xml version="1.0" standalone="no"?><!DOCTYPE svg PUBLIC "-//W3C//DTD SVG 1.1//EN" "http://www.w3.org/Graphics/SVG/1.1/DTD/svg11.dtd"><svg class="icon" width="200px" height="200.00px" viewBox="0 0 1024 1024" version="1.1" xmlns="http://www.w3.org/2000/svg"><path fill="#333333" d="M263.751374 957.486559l-18.009793 0c-58.531828 0-106.523833-47.889677-106.523833-106.523833L139.217748 578.462276c0-58.531828 47.889677-106.523833 106.523833-106.523833l18.009793 0c58.531828 0 106.523833 47.889677 106.523833 106.523833l0 272.602778C370.275207 909.596882 322.283202 957.486559 263.751374 957.486559zM779.077046 958.509843l-18.009793 0c-58.531828 0-106.523833-47.889677-106.523833-106.523833L654.54342 579.48556c0-58.531828 47.889677-106.523833 106.523833-106.523833l18.009793 0c58.531828 0 106.523833 47.889677 106.523833 106.523833l0 272.602778C885.600879 910.620166 837.711202 958.509843 779.077046 958.509843zM98.388728 726.633756 98.388728 541.82872c0-226.452683 177.744379-418.523034 404.094734-423.537124 234.945938-5.321075 423.127811 185.316678 423.127811 419.034676l0 189.307485c0 15.553912 12.58639 28.24263 28.24263 28.24263l0 0c15.553912 0 28.24263-12.58639 28.24263-28.24263L982.096532 539.782152c0-263.495553-215.605876-485.445788-479.101429-480.431698C247.583492 64.159888 42.005796 272.705106 42.005796 529.24233l0 197.391426c0 15.553912 12.58639 28.24263 28.24263 28.24263l0 0C85.802338 754.774058 98.388728 742.187669 98.388728 726.633756z" /></svg>